<svg width="365" height="199" viewBox="0 0 365 199" fill="none" xmlns="http://www.w3.org/2000/svg">
<path d="M128.922 56.776C128.922 57.2917 128.875 57.8073 128.771 58.3125C128.672 58.8177 128.521 59.3125 128.323 59.7865C128.125 60.2656 127.88 60.7188 127.594 61.151C127.307 61.5781 126.979 61.974 126.615 62.3385C126.245 62.7083 125.849 63.0313 125.417 63.3177C124.985 63.6042 124.531 63.849 124.052 64.0469C123.573 64.2448 123.083 64.3958 122.573 64.4948C122.068 64.5938 121.552 64.6458 121.037 64.6458C120.516 64.6458 120.005 64.5938 119.495 64.4948C118.99 64.3958 118.495 64.2448 118.016 64.0469C117.537 63.849 117.083 63.6042 116.651 63.3177C116.224 63.0313 115.823 62.7083 115.458 62.3385C115.089 61.974 114.766 61.5781 114.474 61.151C114.188 60.7188 113.943 60.2656 113.745 59.7865C113.547 59.3125 113.401 58.8177 113.297 58.3125C113.198 57.8073 113.146 57.2917 113.146 56.776C113.146 56.2604 113.198 55.75 113.297 55.2396C113.401 54.7344 113.547 54.2448 113.745 53.7656C113.943 53.2865 114.188 52.8333 114.474 52.4063C114.766 51.974 115.089 51.5781 115.458 51.2135C115.823 50.849 116.224 50.5208 116.651 50.2344C117.083 49.9479 117.537 49.7031 118.016 49.5052C118.495 49.3073 118.99 49.1615 119.495 49.0573C120.005 48.9583 120.516 48.9062 121.037 48.9062C121.552 48.9062 122.068 48.9583 122.573 49.0573C123.083 49.1615 123.573 49.3073 124.052 49.5052C124.531 49.7031 124.985 49.9479 125.417 50.2344C125.849 50.5208 126.245 50.849 126.615 51.2135C126.979 51.5781 127.307 51.974 127.594 52.4063C127.88 52.8333 128.125 53.2865 128.323 53.7656C128.521 54.2448 128.672 54.7344 128.771 55.2396C128.875 55.75 128.922 56.2604 128.922 56.776Z" fill="#FFC258"/>
<path d="M96.0939 48.9062C100.453 48.9062 103.985 52.4323 103.985 56.776C103.985 61.125 100.453 64.6458 96.0939 64.6458C91.7397 64.6458 88.2085 61.125 88.2085 56.776C88.2085 52.4323 91.7397 48.9062 96.0939 48.9062Z" fill="#FFC258"/>
<path d="M79.0471 56.776C79.0471 57.2917 78.995 57.8073 78.8961 58.3125C78.7919 58.8177 78.6409 59.3125 78.443 59.7865C78.245 60.2656 78.0055 60.7188 77.7138 61.151C77.4273 61.5781 77.0992 61.974 76.7346 62.3385C76.37 62.7083 75.969 63.0313 75.5419 63.3177C75.1096 63.6042 74.6565 63.849 74.1773 64.0469C73.6982 64.2448 73.2034 64.3958 72.6982 64.4948C72.1877 64.5938 71.6721 64.6458 71.1565 64.6458C70.6409 64.6458 70.1252 64.5938 69.62 64.4948C69.1096 64.3958 68.6148 64.2448 68.1357 64.0469C67.6617 63.849 67.2034 63.6042 66.7763 63.3177C66.344 63.0313 65.943 62.7083 65.5784 62.3385C65.2138 61.974 64.8857 61.5781 64.5992 61.151C64.3075 60.7188 64.068 60.2656 63.87 59.7865C63.6721 59.3125 63.5211 58.8177 63.4221 58.3125C63.318 57.8073 63.2659 57.2917 63.2659 56.776C63.2659 56.2604 63.318 55.75 63.4221 55.2396C63.5211 54.7344 63.6721 54.2448 63.87 53.7656C64.068 53.2865 64.3075 52.8333 64.5992 52.4063C64.8857 51.974 65.2138 51.5781 65.5784 51.2135C65.943 50.849 66.344 50.5208 66.7763 50.2344C67.2034 49.9479 67.6617 49.7031 68.1357 49.5052C68.6148 49.3073 69.1096 49.1615 69.62 49.0573C70.1252 48.9583 70.6409 48.9062 71.1565 48.9062C71.6721 48.9062 72.1877 48.9583 72.6982 49.0573C73.2034 49.1615 73.6982 49.3073 74.1773 49.5052C74.6565 49.7031 75.1096 49.9479 75.5419 50.2344C75.969 50.5208 76.37 50.849 76.7346 51.2135C77.0992 51.5781 77.4273 51.974 77.7138 52.4063C78.0055 52.8333 78.245 53.2865 78.443 53.7656C78.6409 54.2448 78.7919 54.7344 78.8961 55.2396C78.995 55.75 79.0471 56.2604 79.0471 56.776Z" fill="#FFC258"/>
<path d="M272.693 48.9062C277.052 48.9062 280.584 52.4323 280.584 56.776C280.584 61.125 277.052 64.6458 272.693 64.6458C268.339 64.6458 264.808 61.125 264.808 56.776C264.808 52.4323 268.339 48.9062 272.693 48.9062Z" fill="#FFC258"/>
<path d="M247.755 48.9062C252.11 48.9062 255.646 52.4323 255.646 56.776C255.646 61.125 252.11 64.6458 247.755 64.6458C243.396 64.6458 239.865 61.125 239.865 56.776C239.865 52.4323 243.396 48.9062 247.755 48.9062Z" fill="#FFC258"/>
<path d="M222.818 48.9062C227.172 48.9062 230.703 52.4323 230.703 56.776C230.703 61.125 227.172 64.6458 222.818 64.6458C218.458 64.6458 214.927 61.125 214.927 56.776C214.927 52.4323 218.458 48.9062 222.818 48.9062Z" fill="#FFC258"/>
<mask id="mask0_60_620" style="mask-type:luminance" maskUnits="userSpaceOnUse" x="17" y="0" width="163" height="132">
<path d="M17.4272 0H179.167V132H17.4272V0Z" fill="white"/>
</mask>
<g mask="url(#mask0_60_620)">
<path d="M171.927 32.8176C168.011 32.8176 164.834 35.9843 164.834 39.8905V82.3801C164.834 91.328 157.537 98.6041 148.568 98.6041H88.5835L77.0731 110.995L65.5679 98.6041H47.8752C38.9064 98.6041 31.6095 91.328 31.6095 82.3801V30.552C31.6095 21.6093 38.9064 14.328 47.8752 14.328H150.313C152.203 9.13534 154.964 4.35929 158.432 0.177002H47.8752C31.0835 0.177002 17.4272 13.8072 17.4272 30.552V82.3801C17.4272 99.1301 31.0835 112.755 47.8752 112.755H59.37L77.0731 131.818L94.7762 112.755H148.568C165.36 112.755 179.016 99.1301 179.016 82.3801V39.8905C179.016 35.9843 175.844 32.8176 171.927 32.8176Z" fill="url(#paint0_linear_60_620)"/>
</g>
<mask id="mask1_60_620" style="mask-type:luminance" maskUnits="userSpaceOnUse" x="164" y="0" width="162" height="132">
<path d="M164 0H325.927V132H164V0Z" fill="white"/>
</mask>
<g mask="url(#mask1_60_620)">
<path d="M295.974 0.177002H195.287C178.495 0.177002 164.833 13.8072 164.833 30.552V54.7968C164.833 58.703 168.011 61.8697 171.927 61.8697C175.844 61.8697 179.016 58.703 179.016 54.7968V30.552C179.016 21.6093 186.313 14.328 195.287 14.328H295.974C304.943 14.328 312.24 21.6093 312.24 30.552V82.3801C312.24 91.328 304.943 98.6041 295.974 98.6041H278.287L266.776 110.995L255.266 98.6041H193.526C191.636 103.797 188.875 108.573 185.412 112.755H249.073L266.776 131.818L284.479 112.755H295.974C312.766 112.755 326.427 99.1301 326.427 82.3801V30.552C326.427 13.8072 312.766 0.177002 295.974 0.177002Z" fill="url(#paint1_linear_60_620)"/>
</g>
<path d="M15.6458 198.948C12.5625 198.948 9.84375 198.39 7.5 197.281C5.15104 196.156 3.3125 194.562 1.97917 192.489C0.656251 190.406 0 187.921 0 185.031H8.83333C8.83333 186.989 9.51042 188.442 10.875 189.385C12.25 190.333 13.8177 190.802 15.5833 190.802C16.7083 190.802 17.7552 190.625 18.7292 190.26C19.7135 189.885 20.526 189.343 21.1667 188.635C21.8021 187.927 22.125 187.067 22.125 186.052C22.125 185.026 21.7552 184.213 21.0208 183.614C20.2813 183.02 19.2969 182.526 18.0625 182.135C16.8385 181.75 15.5 181.38 14.0417 181.031C12.526 180.687 10.9792 180.26 9.39583 179.76C7.82292 179.26 6.36458 178.604 5.02083 177.781C3.67187 176.948 2.58854 175.833 1.77083 174.427C0.963541 173.01 0.5625 171.229 0.5625 169.073C0.5625 165.187 1.88021 162.192 4.52083 160.093C7.15625 158 10.7344 156.948 15.25 156.948C19.875 156.948 23.4583 158.114 26 160.448C28.5417 162.77 29.8125 165.937 29.8125 169.948H21.1458C21.1458 168.213 20.526 166.937 19.2917 166.114C18.0521 165.281 16.6302 164.864 15.0208 164.864C13.5885 164.864 12.276 165.171 11.0833 165.781C9.88542 166.395 9.29167 167.359 9.29167 168.677C9.29167 169.635 9.64583 170.401 10.3542 170.968C11.0729 171.526 12.0208 171.984 13.1875 172.343C14.3646 172.708 15.6667 173.062 17.0833 173.406C18.625 173.796 20.1979 174.255 21.8125 174.781C23.4375 175.296 24.9427 176 26.3333 176.885C27.7188 177.76 28.8438 178.937 29.7083 180.406C30.5833 181.864 31.0208 183.713 31.0208 185.948C31.0208 188.88 30.3125 191.312 28.8958 193.239C27.4896 195.156 25.6354 196.588 23.3333 197.531C21.026 198.474 18.4635 198.948 15.6458 198.948Z" fill="url(#paint2_linear_60_620)"/>
<path d="M53.5487 157.698C56.2831 157.698 58.7154 158.312 60.8404 159.531C62.9758 160.739 64.679 162.395 65.9446 164.489C67.2206 166.588 67.8612 168.963 67.8612 171.614C67.8612 174.281 67.2362 176.666 65.9862 178.76C64.7362 180.859 63.0331 182.505 60.8821 183.698C58.7258 184.895 56.2831 185.489 53.5487 185.489H46.7779V198.135H38.0071V157.698H53.5487ZM53.1946 177.385C54.929 177.385 56.3248 176.838 57.3821 175.739C58.4342 174.645 58.9654 173.27 58.9654 171.614C58.9654 169.921 58.4342 168.526 57.3821 167.427C56.3248 166.333 54.929 165.781 53.1946 165.781H46.7779V177.385H53.1946Z" fill="url(#paint3_linear_60_620)"/>
<path d="M93.1039 199.01C90.031 199.01 87.1873 198.479 84.5623 197.427C81.9477 196.359 79.6664 194.875 77.7081 192.968C75.7602 191.067 74.2498 188.838 73.1664 186.281C72.0935 183.713 71.5623 180.921 71.5623 177.906C71.5623 174.906 72.0935 172.13 73.1664 169.573C74.2498 167.005 75.7602 164.77 77.7081 162.864C79.6664 160.963 81.9477 159.484 84.5623 158.427C87.1873 157.359 90.031 156.823 93.1039 156.823C96.1873 156.823 99.031 157.359 101.646 158.427C104.271 159.484 106.547 160.963 108.479 162.864C110.406 164.77 111.906 167.005 112.979 169.573C114.062 172.13 114.604 174.906 114.604 177.906C114.604 180.921 114.062 183.713 112.979 186.281C111.906 188.838 110.406 191.067 108.479 192.968C106.547 194.875 104.271 196.359 101.646 197.427C99.031 198.479 96.1873 199.01 93.1039 199.01ZM93.1039 190.739C95.531 190.739 97.6977 190.187 99.6039 189.073C101.521 187.948 103.026 186.427 104.125 184.51C105.219 182.583 105.771 180.38 105.771 177.906C105.771 175.489 105.219 173.312 104.125 171.364C103.026 169.421 101.521 167.895 99.6039 166.781C97.6977 165.656 95.531 165.093 93.1039 165.093C90.7289 165.093 88.5727 165.656 86.6456 166.781C84.7133 167.895 83.1873 169.421 82.0623 171.364C80.9477 173.312 80.3956 175.489 80.3956 177.906C80.3956 180.338 80.9477 182.526 82.0623 184.468C83.1873 186.416 84.7133 187.948 86.6456 189.073C88.5727 190.187 90.7289 190.739 93.1039 190.739Z" fill="url(#paint4_linear_60_620)"/>
<path d="M149.374 157.698V165.843H138.103V198.135H129.333V165.843H118.124V157.698H149.374Z" fill="url(#paint5_linear_60_620)"/>
<path d="M188.88 157.698L174.672 181.781V198.135H165.672V181.718L151.568 157.698H160.88L170.235 173.864L179.589 157.698H188.88Z" fill="url(#paint6_linear_60_620)"/>
<path d="M226.784 199.01C223.81 199.01 221.055 198.479 218.514 197.427C215.972 196.359 213.753 194.875 211.868 192.968C209.993 191.067 208.534 188.838 207.493 186.281C206.451 183.713 205.93 180.942 205.93 177.968C205.93 174.968 206.451 172.177 207.493 169.593C208.534 167.01 209.993 164.77 211.868 162.864C213.753 160.963 215.972 159.484 218.514 158.427C221.055 157.359 223.81 156.823 226.784 156.823C230.06 156.823 233.06 157.5 235.784 158.843C238.519 160.192 240.81 162.083 242.659 164.51C244.519 166.942 245.753 169.755 246.368 172.948H237.597C236.774 170.562 235.399 168.666 233.472 167.26C231.555 165.859 229.326 165.156 226.784 165.156C224.503 165.156 222.461 165.729 220.659 166.864C218.852 167.989 217.415 169.52 216.347 171.448C215.29 173.38 214.764 175.552 214.764 177.968C214.764 180.401 215.29 182.567 216.347 184.468C217.415 186.375 218.852 187.885 220.659 189.01C222.461 190.125 224.503 190.677 226.784 190.677C229.435 190.677 231.727 189.927 233.659 188.427C235.586 186.927 236.915 184.885 237.639 182.302H246.493C245.868 185.651 244.639 188.583 242.805 191.093C240.982 193.593 238.691 195.541 235.93 196.927C233.18 198.312 230.128 199.01 226.784 199.01Z" fill="url(#paint7_linear_60_620)"/>
<path d="M276.759 157.698H285.468V198.135H276.759V181.448H261.551V198.135H252.78V157.698H261.551V173.302H276.759V157.698Z" fill="url(#paint8_linear_60_620)"/>
<path d="M321.63 198.135L318.796 190.448H302.692L299.921 198.135H290.671L306.505 157.698H314.755L331.109 198.135H321.63ZM310.713 168.385L305.463 182.823H316.026L310.713 168.385Z" fill="url(#paint9_linear_60_620)"/>
<path d="M364.147 157.698V165.843H352.876V198.135H344.106V165.843H332.897V157.698H364.147Z" fill="url(#paint10_linear_60_620)"/>
<defs>
<linearGradient id="paint0_linear_60_620" x1="98.2215" y1="0.177002" x2="98.2215" y2="131.818" gradientUnits="userSpaceOnUse">
<stop offset="0.32" stop-color="#FFC258"/>
<stop offset="1" stop-color="#FF903D"/>
</linearGradient>
<linearGradient id="paint1_linear_60_620" x1="245.63" y1="0.177002" x2="245.63" y2="131.818" gradientUnits="userSpaceOnUse">
<stop offset="0.32" stop-color="#FFC258"/>
<stop offset="1" stop-color="#FF903D"/>
</linearGradient>
<linearGradient id="paint2_linear_60_620" x1="15.5104" y1="156.948" x2="15.5104" y2="198.948" gradientUnits="userSpaceOnUse">
<stop offset="0.38" stop-color="#FFC258"/>
<stop offset="1" stop-color="#FF903D"/>
</linearGradient>
<linearGradient id="paint3_linear_60_620" x1="52.9342" y1="157.698" x2="52.9342" y2="198.135" gradientUnits="userSpaceOnUse">
<stop offset="0.38" stop-color="#FFC258"/>
<stop offset="1" stop-color="#FF903D"/>
</linearGradient>
<linearGradient id="paint4_linear_60_620" x1="93.0831" y1="156.823" x2="93.0831" y2="199.01" gradientUnits="userSpaceOnUse">
<stop offset="0.38" stop-color="#FFC258"/>
<stop offset="1" stop-color="#FF903D"/>
</linearGradient>
<linearGradient id="paint5_linear_60_620" x1="133.749" y1="157.698" x2="133.749" y2="198.135" gradientUnits="userSpaceOnUse">
<stop offset="0.38" stop-color="#FFC258"/>
<stop offset="1" stop-color="#FF903D"/>
</linearGradient>
<linearGradient id="paint6_linear_60_620" x1="170.224" y1="157.698" x2="170.224" y2="198.135" gradientUnits="userSpaceOnUse">
<stop offset="0.38" stop-color="#FFC258"/>
<stop offset="1" stop-color="#FF903D"/>
</linearGradient>
<linearGradient id="paint7_linear_60_620" x1="226.211" y1="156.823" x2="226.211" y2="199.01" gradientUnits="userSpaceOnUse">
<stop offset="0.38" stop-color="#FFC258"/>
<stop offset="1" stop-color="#FF903D"/>
</linearGradient>
<linearGradient id="paint8_linear_60_620" x1="269.124" y1="157.698" x2="269.124" y2="198.135" gradientUnits="userSpaceOnUse">
<stop offset="0.38" stop-color="#FFC258"/>
<stop offset="1" stop-color="#FF903D"/>
</linearGradient>
<linearGradient id="paint9_linear_60_620" x1="310.89" y1="157.698" x2="310.89" y2="198.135" gradientUnits="userSpaceOnUse">
<stop offset="0.38" stop-color="#FFC258"/>
<stop offset="1" stop-color="#FF903D"/>
</linearGradient>
<linearGradient id="paint10_linear_60_620" x1="348.522" y1="157.698" x2="348.522" y2="198.135" gradientUnits="userSpaceOnUse">
<stop offset="0.38" stop-color="#FFC258"/>
<stop offset="1" stop-color="#FF903D"/>
</linearGradient>
</defs>
</svg>
